<svg xmlns="http://www.w3.org/2000/svg" width="16" height="16"><path d="M7.998.283a1.466 1.466 0 0 0-1.041.434L.717 6.959a1.466 1.466 0 0 0 0 2.08l6.244 6.244a1.466 1.466 0 0 0 2.078 0l6.244-6.244a1.466 1.466 0 0 0 0-2.08L9.04.717A1.466 1.466 0 0 0 7.998.283zm0 .934a1.289 1.289 0 0 1 .916.383l5.488 5.486a1.289 1.289 0 0 1 0 1.826l-5.488 5.49a1.289 1.289 0 0 1-1.828 0l-5.488-5.49a1.289 1.289 0 0 1 0-1.826L7.082 1.6a1.289 1.289 0 0 1 .916-.383z" fill="#7c916f"/><path d="M6.138 5.135c-.045.062.067 2.506.067 2.506h1.368v.718H6.205l-.067 2.505c-.804.026-1.208.058-2.011.095v-.718h1.445V8.359H4.127v-.718h1.445V5.759H4.127v-.718zM11.88 6.28V7h.72a.36.36 0 0 1-.36.359v.72a.36.36 0 0 1 .36.359.36.36 0 0 1-.36.36h-.36v.719h.36a1.08 1.08 0 0 0 .934-.54 1.08 1.08 0 0 0 0-1.079 1.08 1.08 0 0 0-.13-.18 1.08 1.08 0 0 0 .13-.18A1.08 1.08 0 0 0 13.318 7h.001v-.72zM7.924 7v2.157h.72a1.08 1.08 0 0 0 1.078-1.079V7h-.72v1.08a.36.36 0 0 1-.359.359v-1.44zm1.798 1.078a1.08 1.08 0 0 0 1.08 1.08h.359v-.72h-.36a.36.36 0 0 1-.36-.36.36.36 0 0 1 .36-.36h.36V7h-.36a1.08 1.08 0 0 0-1.079 1.08z" fill="#7c916f"/></svg>