<svg xmlns="http://www.w3.org/2000/svg" width="16" height="16"><path d="M7.998.283a1.466 1.466 0 0 0-1.041.434L.717 6.959a1.466 1.466 0 0 0 0 2.08l6.244 6.244a1.466 1.466 0 0 0 2.078 0l6.244-6.244a1.466 1.466 0 0 0 0-2.08L9.04.717A1.466 1.466 0 0 0 7.998.283zm0 .934a1.289 1.289 0 0 1 .916.383l5.488 5.486a1.289 1.289 0 0 1 0 1.826l-5.488 5.49a1.289 1.289 0 0 1-1.828 0l-5.488-5.49a1.289 1.289 0 0 1 0-1.826L7.082 1.6a1.289 1.289 0 0 1 .916-.383z" fill="#0a8"/><path d="M8 3.85L3.915 5.892v4.216L8 12.15l4.085-2.042V5.892zm0 1.234l2.3 1.15L8 7.384l-2.3-1.15zM5.082 7.158l2.334 1.167v2.3L5.082 9.457zm5.836 0v2.299l-2.334 1.168v-2.3z" fill="#0a8"/></svg>