<svg xmlns="http://www.w3.org/2000/svg" width="16" height="16"><path d="M7.998.283a1.466 1.466 0 0 0-1.041.434L.717 6.959a1.466 1.466 0 0 0 0 2.08l6.244 6.244a1.466 1.466 0 0 0 2.078 0l6.244-6.244a1.466 1.466 0 0 0 0-2.08L9.04.717A1.466 1.466 0 0 0 7.998.283zm0 .934a1.289 1.289 0 0 1 .916.383l5.488 5.486a1.289 1.289 0 0 1 0 1.826l-5.488 5.49a1.289 1.289 0 0 1-1.828 0l-5.488-5.49a1.289 1.289 0 0 1 0-1.826L7.082 1.6a1.289 1.289 0 0 1 .916-.383z" fill="#a02c2c"/><path style="line-height:1.25;-inkscape-font-specification:'Noto Sans Symbols'" d="M10.292 6.14q0 .734-.375 1.251-.37.517-1.05.778l2.485 3.806H9.177l-2.126-3.53h-.478v3.53H4.648v-7.95H7.53q2.762 0 2.762 2.115zm-2.17 1.713v-3.24h-1.55v3.24zM9.645 6.14q0-.614-.234-.924-.234-.31-.69-.468v2.915q.402-.174.663-.511.26-.343.26-1.012zm-.169 5.258h.827L8.356 8.332q-.337.07-.68.092zm-3.496-.016v-6.77h-.745v6.77z" font-weight="400" font-family="Noto Sans Symbols" letter-spacing="0" word-spacing="0" fill="#a02c2c"/></svg>