<svg xmlns="http://www.w3.org/2000/svg" width="16" height="16"><path d="M7.998.283a1.466 1.466 0 0 0-1.041.434L.717 6.959a1.466 1.466 0 0 0 0 2.08l6.244 6.244a1.466 1.466 0 0 0 2.078 0l6.244-6.244a1.466 1.466 0 0 0 0-2.08L9.04.717A1.466 1.466 0 0 0 7.998.283zm0 .934a1.289 1.289 0 0 1 .916.383l5.488 5.486a1.289 1.289 0 0 1 0 1.826l-5.488 5.49a1.289 1.289 0 0 1-1.828 0l-5.488-5.49a1.289 1.289 0 0 1 0-1.826L7.082 1.6a1.289 1.289 0 0 1 .916-.383z" fill="#ac9393"/><path d="M7.03 11.18h1.275v1.595H7.029zm1.237-.924h-1.2v-.968q0-.635.176-1.043.176-.408.741-.949l.566-.559q.358-.333.515-.628.163-.296.163-.603 0-.56-.414-.905-.409-.346-1.087-.346-.497 0-1.062.22-.56.22-1.169.641V3.935q.59-.358 1.194-.534.61-.176 1.257-.176 1.156 0 1.853.61.704.609.704 1.608 0 .477-.226.91-.226.428-.792.968l-.553.54q-.295.296-.42.466-.12.163-.17.32-.038.132-.057.32-.019.19-.019.516z" aria-label="?" font-weight="400" font-size="16" font-family="Noto Sans Symbols" letter-spacing="0" word-spacing="0" fill="#ac9393"/></svg>