<svg xmlns="http://www.w3.org/2000/svg" width="16" height="16"><path d="M7.998.283a1.466 1.466 0 0 0-1.041.434L.717 6.959a1.466 1.466 0 0 0 0 2.08l6.244 6.244a1.466 1.466 0 0 0 2.078 0l6.244-6.244a1.466 1.466 0 0 0 0-2.08L9.04.717A1.466 1.466 0 0 0 7.998.283zm0 .934a1.289 1.289 0 0 1 .916.383l5.488 5.486a1.289 1.289 0 0 1 0 1.826l-5.488 5.49a1.289 1.289 0 0 1-1.828 0l-5.488-5.49a1.289 1.289 0 0 1 0-1.826L7.082 1.6a1.289 1.289 0 0 1 .916-.383z" fill="#95f"/><path style="line-height:1.25;-inkscape-font-specification:'Noto Sans Symbols'" d="M7.997 7.088l2.135-2.135.919.912L8.916 8l2.135 2.135-.92.912-2.134-2.135-2.129 2.135-.919-.912L7.084 8 4.95 5.865l.92-.912z" font-weight="400" font-family="Noto Sans Symbols" letter-spacing="0" word-spacing="0" fill="#95f"/></svg>