<svg xmlns="http://www.w3.org/2000/svg" width="16" height="16"><path d="M3 15a2 2 0 1 1 0-4 2 2 0 0 1 0 4zm10 0a2 2 0 1 1 0-4 2 2 0 0 1 0 4zM3 5a2 2 0 1 1 0-4 2 2 0 0 1 0 4z" fill="#ffd684"/><path style="line-height:1.25;-inkscape-font-specification:'PT Serif Bold Italic'" d="M9.116 5.334H8.009v-.549q.312-.156.655-.268.359-.126.67-.198l.11-.492q.203-.873.545-1.436.36-.578.827-.902.468-.337 1.062-.463.592-.127 1.278-.127.5 0 1.014.084.515.07.827.225.032.198-.03.437-.047.225-.173.436-.109.211-.265.38-.155.17-.343.254l-1.123-1.07q-.218.043-.437.14-.204.085-.39.296-.188.211-.374.606-.172.393-.313 1.056l-.14.704h1.717q.03.155 0 .437-.032.267-.204.45h-1.715l-.967 5.548q-.157 1-.64 1.661-.484.663-1.078 1.056-.576.407-1.17.605-.592.198-.966.268l-.172-.479q.188-.084.469-.28.28-.184.56-.522.281-.338.516-.844.249-.494.374-1.197z" font-style="italic" font-weight="700" letter-spacing="0" word-spacing="0" font-family="PT Serif" fill="#ffd684"/></svg>