<svg xmlns="http://www.w3.org/2000/svg" width="16" height="16"><path d="M7.998.283a1.466 1.466 0 0 0-1.041.434L.717 6.959a1.466 1.466 0 0 0 0 2.08l6.244 6.244a1.466 1.466 0 0 0 2.078 0l6.244-6.244a1.466 1.466 0 0 0 0-2.08L9.04.717A1.466 1.466 0 0 0 7.998.283zm0 .934a1.289 1.289 0 0 1 .916.383l5.488 5.486a1.289 1.289 0 0 1 0 1.826l-5.488 5.49a1.289 1.289 0 0 1-1.828 0l-5.488-5.49a1.289 1.289 0 0 1 0-1.826L7.082 1.6a1.289 1.289 0 0 1 .916-.383z" fill="#7c916f"/><g font-weight="400" color="#000" font-family="sans-serif" white-space="normal" fill="#7c916f"><path overflow="visible" d="M9.578 3.74a4.278 4.278 0 0 0-.75.125c-.667.17-1.367.509-2.044.973a8.56 8.56 0 0 1 1.124-.032c.147.007.288.03.433.044.233-.1.462-.176.68-.234.852-.216 1.514-.098 1.882.277.195.2.305.484.332.823.03.018.062.03.088.047.25.152.47.327.668.515.094-.744-.052-1.438-.534-1.93a2.054 2.054 0 0 0-1.169-.581 3.09 3.09 0 0 0-.71-.025zm-5.9 5.527c-.094.74.051 1.435.533 1.927.63.643 1.616.743 2.628.486.667-.17 1.366-.51 2.042-.974a8.316 8.316 0 0 1-1.123.031c-.15-.006-.29-.03-.437-.042a4.778 4.778 0 0 1-.675.229c-.851.217-1.514.103-1.882-.272-.195-.202-.306-.485-.332-.828l-.088-.044a4.154 4.154 0 0 1-.666-.513z" style="line-height:normal;font-variant-ligatures:normal;font-variant-position:normal;font-variant-caps:normal;font-variant-numeric:normal;font-variant-alternates:normal;font-feature-settings:normal;text-indent:0;text-align:start;text-decoration-line:none;text-decoration-style:solid;text-decoration-color:#000;text-transform:none;text-orientation:mixed;shape-padding:0;isolation:auto;mix-blend-mode:normal"/><path overflow="visible" d="M11.235 5.716c.023.296-.015.632-.132 1.015-.253.822-.853 1.768-1.735 2.598a7.043 7.043 0 0 1-2.047 1.364c.147.015.287.037.437.044.386.016.76 0 1.123-.032.348-.24.692-.5 1.022-.809.967-.911 1.64-1.95 1.943-2.936.071-.23.117-.459.145-.684a4.108 4.108 0 0 0-.666-.514l-.089-.044z" style="line-height:normal;font-variant-ligatures:normal;font-variant-position:normal;font-variant-caps:normal;font-variant-numeric:normal;font-variant-alternates:normal;font-feature-settings:normal;text-indent:0;text-align:start;text-decoration-line:none;text-decoration-style:solid;text-decoration-color:#000;text-transform:none;text-orientation:mixed;shape-padding:0;isolation:auto;mix-blend-mode:normal"/><path overflow="visible" style="line-height:normal;font-variant-ligatures:normal;font-variant-position:normal;font-variant-caps:normal;font-variant-numeric:normal;font-variant-alternates:normal;font-feature-settings:normal;text-indent:0;text-align:start;text-decoration-line:none;text-decoration-style:solid;text-decoration-color:#000;text-transform:none;text-orientation:mixed;shape-padding:0;isolation:auto;mix-blend-mode:normal" d="M7.908 4.806c-1.327-.059-2.54.184-3.457.651-.917.468-1.576 1.194-1.598 2.093-.022.9.597 1.68 1.49 2.227.89.548 2.088.901 3.416.96 1.326.059 2.54-.187 3.455-.654.92-.468 1.576-1.191 1.6-2.09.022-.9-.598-1.683-1.49-2.23-.892-.548-2.09-.897-3.416-.957zm-.02.78c1.21.052 2.294.379 3.041.837.747.46 1.12 1.012 1.107 1.535-.015.524-.414 1.04-1.182 1.43-.767.392-1.867.624-3.076.571-1.208-.054-2.29-.383-3.037-.842-.747-.459-1.124-1.009-1.11-1.532.013-.525.416-1.043 1.185-1.434.767-.39 1.863-.62 3.073-.567z"/></g></svg>