<svg xmlns="http://www.w3.org/2000/svg" width="16" height="16"><path d="M7.998.283a1.466 1.466 0 0 0-1.041.434L.717 6.959a1.466 1.466 0 0 0 0 2.08l6.244 6.244a1.466 1.466 0 0 0 2.078 0l6.244-6.244a1.466 1.466 0 0 0 0-2.08L9.04.717A1.466 1.466 0 0 0 7.998.283zm0 .934a1.289 1.289 0 0 1 .916.383l5.488 5.486a1.289 1.289 0 0 1 0 1.826l-5.488 5.49a1.289 1.289 0 0 1-1.828 0l-5.488-5.49a1.289 1.289 0 0 1 0-1.826L7.082 1.6a1.289 1.289 0 0 1 .916-.383z" fill="#95f"/><g fill="#95f"><path d="M5.965 6.628l.654-.654 2.385 2.384-.654.654z"/><path d="M7.286 5.315L6.14 5.15l-1.145-.163.164 1.144.163 1.145.982-.981zm2.749 4.057l-.654.654-2.385-2.384.654-.654z"/><path d="M8.714 10.685l1.145.164 1.145.163-.164-1.144-.163-1.145-.982.981z"/></g></svg>