<svg xmlns="http://www.w3.org/2000/svg" width="16" height="16"><path d="M7.998.283a1.466 1.466 0 0 0-1.041.434L.717 6.959a1.466 1.466 0 0 0 0 2.08l6.244 6.244a1.466 1.466 0 0 0 2.078 0l6.244-6.244a1.466 1.466 0 0 0 0-2.08L9.04.717A1.466 1.466 0 0 0 7.998.283zm0 .934a1.289 1.289 0 0 1 .916.383l5.488 5.486a1.289 1.289 0 0 1 0 1.826l-5.488 5.49a1.289 1.289 0 0 1-1.828 0l-5.488-5.49a1.289 1.289 0 0 1 0-1.826L7.082 1.6a1.289 1.289 0 0 1 .916-.383z" fill="#a02c2c"/><path d="M9.827 5.65v1.045h1.044a.522.522 0 0 1-.522.522V8.26a.522.522 0 0 1 .522.522.522.522 0 0 1-.522.522h-.522v1.044h.522a1.566 1.566 0 0 0 1.356-.783 1.566 1.566 0 0 0 0-1.566 1.566 1.566 0 0 0-.19-.262 1.566 1.566 0 0 0 .19-.26 1.566 1.566 0 0 0 .208-.783h.002V5.65zM4.085 6.696v3.132h1.044a1.566 1.566 0 0 0 1.566-1.566V6.695H5.65V8.26a.522.522 0 0 1-.522.522V6.695zm2.61 1.566A1.566 1.566 0 0 0 8.26 9.827h.522V8.783H8.26a.522.522 0 0 1-.522-.522.522.522 0 0 1 .522-.522h.522V6.695H8.26A1.566 1.566 0 0 0 6.695 8.26z" fill="#a02c2c"/></svg>