<svg xmlns="http://www.w3.org/2000/svg" width="16" height="16"><path d="M7.998.283a1.466 1.466 0 0 0-1.041.434L.717 6.959a1.466 1.466 0 0 0 0 2.08l6.244 6.244a1.466 1.466 0 0 0 2.078 0l6.244-6.244a1.466 1.466 0 0 0 0-2.08L9.04.717A1.466 1.466 0 0 0 7.998.283zm0 .934a1.289 1.289 0 0 1 .916.383l5.488 5.486a1.289 1.289 0 0 1 0 1.826l-5.488 5.49a1.289 1.289 0 0 1-1.828 0l-5.488-5.49a1.289 1.289 0 0 1 0-1.826L7.082 1.6a1.289 1.289 0 0 1 .916-.383z" fill="#a02c2c"/><path d="M4.341 10.052h-1.05V5.963h1.05V6.3h-.648v3.414h.648zm7.318-.338h.648V6.3h-.648v-.337h1.05v4.09h-1.05z" style="line-height:1.25;-inkscape-font-specification:'Noto Sans'" font-weight="400" letter-spacing="0" word-spacing="0" font-family="Noto Sans" fill="#a02c2c"/><path d="M9.51 6.058v.863h.864a.432.432 0 0 1-.432.432v.863a.432.432 0 0 1 .432.431.432.432 0 0 1-.432.432h-.431v.863h.431a1.295 1.295 0 0 0 1.122-.647 1.295 1.295 0 0 0 0-1.295 1.295 1.295 0 0 0-.158-.217 1.295 1.295 0 0 0 .158-.215 1.295 1.295 0 0 0 .172-.647h.001v-.863zm-4.747.863v2.59h.863a1.295 1.295 0 0 0 1.295-1.295V6.92h-.863v1.295a.432.432 0 0 1-.432.431V6.921zM6.92 8.216A1.295 1.295 0 0 0 8.216 9.51h.431v-.864h-.431a.432.432 0 0 1-.432-.431.432.432 0 0 1 .432-.432h.431V6.92h-.431A1.295 1.295 0 0 0 6.92 8.216z" fill="#a02c2c"/></svg>