<svg xmlns="http://www.w3.org/2000/svg" width="16" height="16"><path d="M7.998.283a1.466 1.466 0 0 0-1.041.434L.717 6.959a1.466 1.466 0 0 0 0 2.08l6.244 6.244a1.466 1.466 0 0 0 2.078 0l6.244-6.244a1.466 1.466 0 0 0 0-2.08L9.04.717A1.466 1.466 0 0 0 7.998.283zm0 .934a1.289 1.289 0 0 1 .916.383l5.488 5.486a1.289 1.289 0 0 1 0 1.826l-5.488 5.49a1.289 1.289 0 0 1-1.828 0l-5.488-5.49a1.289 1.289 0 0 1 0-1.826L7.082 1.6a1.289 1.289 0 0 1 .916-.383z" fill="#7c916f"/><path d="M6.051 6.61a.873.873 0 1 1-1.746 0 .873.873 0 0 1 1.746 0zm5.936-.384a1.855 1.855 0 1 1-3.71 0 1.855 1.855 0 0 1 3.71 0zM7.42 9.942a1.557 1.557 0 1 1-3.113 0 1.557 1.557 0 0 1 3.113 0zm2.697-.328a.963.963 0 1 1-1.925 0 .963.963 0 0 1 1.925 0z" fill="#7c916f"/></svg>