<svg xmlns="http://www.w3.org/2000/svg" width="16" height="16"><path d="M7.998.283a1.466 1.466 0 0 0-1.041.434L.717 6.959a1.466 1.466 0 0 0 0 2.08l6.244 6.244a1.466 1.466 0 0 0 2.078 0l6.244-6.244a1.466 1.466 0 0 0 0-2.08L9.04.717A1.466 1.466 0 0 0 7.998.283zm0 .934a1.289 1.289 0 0 1 .916.383l5.488 5.486a1.289 1.289 0 0 1 0 1.826l-5.488 5.49a1.289 1.289 0 0 1-1.828 0l-5.488-5.49a1.289 1.289 0 0 1 0-1.826L7.082 1.6a1.289 1.289 0 0 1 .916-.383z" fill="#a80"/><path style="line-height:normal;font-variant-ligatures:normal;font-variant-position:normal;font-variant-caps:normal;font-variant-numeric:normal;font-variant-alternates:normal;font-feature-settings:normal;text-indent:0;text-align:start;text-decoration-line:none;text-decoration-style:solid;text-decoration-color:#000;text-transform:none;text-orientation:mixed;shape-padding:0;isolation:auto;mix-blend-mode:normal" d="M10.934 4.371a.36.36 0 0 0-.32.004.6.6 0 0 0-.208.193c-.22.312-.353.813-.316 1.217v-.033c-.033.38-.131.525-.17.549-.02.011-.035.014-.08.004a.615.615 0 0 1-.192-.096c-.303-.213-.7-.734-.918-1.047l-.011-.016-.014-.013c-.296-.28-.559-.416-.814-.389-.256.027-.43.218-.547.428-.23.411-.334.986-.467 1.31-.176.227-.31.305-.361.309-.053.004-.104-.024-.18-.143-.153-.237-.27-.743-.338-1.082l-.002-.015-.006-.016c-.154-.4-.374-.646-.638-.73-.265-.084-.535.014-.725.193a1.266 1.266 0 0 0-.152 1.623l.312-.213a.906.906 0 0 1 .098-1.135c.118-.11.235-.146.351-.109.116.037.27.168.4.506l-.007-.03c.068.341.162.862.389 1.214.113.175.295.333.527.314.231-.019.433-.182.648-.47l.014-.02.008-.02c.17-.4.28-.982.459-1.3.089-.16.168-.228.256-.237.088-.01.257.044.515.287.227.325.594.836.987 1.112.1.07.205.127.32.154a.49.49 0 0 0 .361-.049c.225-.134.317-.413.354-.842l.002-.015-.002-.018c-.025-.27.114-.77.25-.963.024-.034.036-.043.05-.055.003.01.088.1.149.387l.004.016.006.015c.093.232.188.476.326.71l.326-.194c-.118-.2-.208-.425-.303-.658l.01.031c-.074-.348-.15-.562-.351-.668zm.25 3.055l-.149.162c-.583.63-1.845.811-2.97.478l-.157-.045-.068.147c-.172.364-.398.45-.719.451-.321.002-.722-.121-1.107-.24s-.749-.247-1.084-.166a.61.61 0 0 0-.407.336c-.081.176-.103.396-.08.681l.377-.03c-.02-.25.006-.41.045-.493.04-.084.074-.106.153-.125.157-.038.502.04.884.158.383.118.807.26 1.221.258.349-.002.654-.237.89-.564 1.115.314 2.296.152 3.051-.47.064.15.09.32.172.56l.358-.122c-.068-.2-.047-.522-.274-.804zm-.26 2.544c-.139.041-.238.072-.297.061l-.027-.004-.028.002c-.834.09-1.688.05-2.552.055-1.173.001-2.431.11-3.489.77l.2.322c.958-.598 2.142-.712 3.29-.713.85-.006 1.718.038 2.592-.057l-.054-.004c.197.037.356-.034.472-.068.11-.032.154-.034.205-.006l.004.008.35-.145a.44.44 0 0 0-.111-.164l-.012-.01-.014-.01c-.186-.117-.39-.077-.53-.036z" color="#000" font-weight="400" font-family="sans-serif" white-space="normal" overflow="visible" fill="#a80"/></svg>