<svg xmlns="http://www.w3.org/2000/svg" width="16" height="16"><path d="M7.998.283a1.466 1.466 0 0 0-1.041.434L.717 6.959a1.466 1.466 0 0 0 0 2.08l6.244 6.244a1.466 1.466 0 0 0 2.078 0l6.244-6.244a1.466 1.466 0 0 0 0-2.08L9.04.717A1.466 1.466 0 0 0 7.998.283zm0 .934a1.289 1.289 0 0 1 .916.383l5.488 5.486a1.289 1.289 0 0 1 0 1.826l-5.488 5.49a1.289 1.289 0 0 1-1.828 0l-5.488-5.49a1.289 1.289 0 0 1 0-1.826L7.082 1.6a1.289 1.289 0 0 1 .916-.383z" fill="#a80"/><path d="M8 4.907c-.822 0-1.566.106-2.145.3a2.42 2.42 0 0 0-.748.376c-.208.164-.4.415-.4.735v3.764c0 .32.192.572.4.736.209.164.459.28.748.376.58.193 1.323.3 2.145.3.822 0 1.566-.107 2.145-.3.27-.08.522-.208.748-.376.208-.164.4-.416.4-.736V6.318c0-.32-.192-.57-.4-.735a2.427 2.427 0 0 0-.748-.377c-.58-.193-1.323-.3-2.145-.3zm0 .94c.737 0 1.405.105 1.848.253.218.072.377.158.456.22-.08.06-.238.145-.456.218-.443.147-1.11.25-1.848.25-.737 0-1.405-.103-1.848-.25a1.664 1.664 0 0 1-.456-.219c.08-.06.238-.147.456-.22.443-.147 1.11-.251 1.848-.251zm-2.352 1.5c.069.028.133.06.207.084.58.193 1.323.299 2.145.299.822 0 1.566-.106 2.145-.3.074-.024.138-.055.207-.083v2.735c-.079.06-.286.147-.504.22-.443.147-1.11.25-1.848.25-.737 0-1.405-.103-1.848-.25-.218-.073-.425-.16-.504-.22z" fill="#a80"/><g fill="#a80"><path d="M7.528 4.525h.925v1.638h-.925z"/><path d="M9.39 4.53l-.693-.942-.694-.942-.694.942-.693.942h1.387z"/></g></svg>