<svg xmlns="http://www.w3.org/2000/svg" width="16" height="16"><path d="M7.998.283a1.466 1.466 0 0 0-1.041.434L.717 6.959a1.466 1.466 0 0 0 0 2.08l6.244 6.244a1.466 1.466 0 0 0 2.078 0l6.244-6.244a1.466 1.466 0 0 0 0-2.08L9.04.717A1.466 1.466 0 0 0 7.998.283zm0 .934a1.289 1.289 0 0 1 .916.383l5.488 5.486a1.289 1.289 0 0 1 0 1.826l-5.488 5.49a1.289 1.289 0 0 1-1.828 0l-5.488-5.49a1.289 1.289 0 0 1 0-1.826L7.082 1.6a1.289 1.289 0 0 1 .916-.383z" fill="#7c916f"/><path d="M7.377 3.64l-.351 1.407a3.114 3.114 0 0 0-.43.174l-1.238-.744-.88.881.744 1.242c-.07.138-.13.28-.178.427l-1.403.35v1.246l1.406.351c.047.147.105.29.174.428l-.744 1.24.881.88 1.242-.744c.138.07.28.13.427.178l.35 1.403h1.246l.351-1.406c.147-.047.29-.105.428-.174l1.24.744.88-.881-.744-1.242c.07-.138.13-.28.178-.427l1.403-.35V7.377l-1.406-.351a3.114 3.114 0 0 0-.174-.428l.744-1.24-.881-.88-1.242.744c-.138-.07-.28-.13-.427-.178l-.35-1.403H7.377zM8 6.755a1.246 1.246 0 1 1 0 2.494 1.246 1.246 0 0 1 0-2.495z" fill="#7c916f"/></svg>