<svg xmlns="http://www.w3.org/2000/svg" width="16" height="16"><path d="M7.998.283a1.466 1.466 0 0 0-1.041.434L.717 6.959a1.466 1.466 0 0 0 0 2.08l6.244 6.244a1.466 1.466 0 0 0 2.078 0l6.244-6.244a1.466 1.466 0 0 0 0-2.08L9.04.717A1.466 1.466 0 0 0 7.998.283zm0 .934a1.289 1.289 0 0 1 .916.383l5.488 5.486a1.289 1.289 0 0 1 0 1.826l-5.488 5.49a1.289 1.289 0 0 1-1.828 0l-5.488-5.49a1.289 1.289 0 0 1 0-1.826L7.082 1.6a1.289 1.289 0 0 1 .916-.383z" fill="#a02c2c"/><path d="M11.134 4.344c-1.654 0-2.666.446-3.177 1.212-.51.766-.48 1.66-.48 2.444s-.03 1.456-.303 1.865c-.273.41-.828.747-2.308.747a.522.522 0 1 0 0 1.044c1.654 0 2.666-.446 3.177-1.212.51-.766.48-1.66.48-2.444s.03-1.456.303-1.865c.273-.41.828-.747 2.308-.747a.522.522 0 1 0 0-1.044z" style="text-indent:0;text-decoration-line:none;text-decoration-style:solid;text-decoration-color:#000;text-transform:none;isolation:auto;mix-blend-mode:normal" color="#000" white-space="normal" fill="#a02c2c" fill-rule="evenodd"/></svg>