<svg xmlns="http://www.w3.org/2000/svg" width="16" height="16"><path d="M7.998.283a1.466 1.466 0 0 0-1.041.434L.717 6.959a1.466 1.466 0 0 0 0 2.08l6.244 6.244a1.466 1.466 0 0 0 2.078 0l6.244-6.244a1.466 1.466 0 0 0 0-2.08L9.04.717A1.466 1.466 0 0 0 7.998.283zm0 .934a1.289 1.289 0 0 1 .916.383l5.488 5.486a1.289 1.289 0 0 1 0 1.826l-5.488 5.49a1.289 1.289 0 0 1-1.828 0l-5.488-5.49a1.289 1.289 0 0 1 0-1.826L7.082 1.6a1.289 1.289 0 0 1 .916-.383z" fill="#55d400"/><path d="M8.867 8.24c.246-.89-.846-1.528-1.5-.879-.656.649-.027 1.746.864 1.509z" fill="#55d400"/><path d="M10.358 9.712l-.654.654L7.32 7.982l.654-.654z" fill="#55d400"/><path d="M9.037 11.025l1.145.164 1.145.163-.164-1.144L11 9.063l-.981.981z" fill="#55d400"/><g fill="#55d400"><path d="M5.688 4.488a3.42 3.42 0 0 1 4.634 1.39l-1.004.54a2.28 2.28 0 0 0-3.09-.926 2.28 2.28 0 0 0-.925 3.09 2.28 2.28 0 0 0 3.089.925l.54 1.004A3.42 3.42 0 0 1 4.3 9.122a3.42 3.42 0 0 1 1.389-4.634z"/><path d="M8.298 6.96l1.294.599 1.293.598.212-1.41.212-1.409-1.506.811z"/></g></svg>