<svg xmlns="http://www.w3.org/2000/svg" width="16" height="16"><path d="M7.998.283a1.466 1.466 0 0 0-1.041.434L.717 6.959a1.466 1.466 0 0 0 0 2.08l6.244 6.244a1.466 1.466 0 0 0 2.078 0l6.244-6.244a1.466 1.466 0 0 0 0-2.08L9.04.717A1.466 1.466 0 0 0 7.998.283zm0 .934a1.289 1.289 0 0 1 .916.383l5.488 5.486a1.289 1.289 0 0 1 0 1.826l-5.488 5.49a1.289 1.289 0 0 1-1.828 0l-5.488-5.49a1.289 1.289 0 0 1 0-1.826L7.082 1.6a1.289 1.289 0 0 1 .916-.383z" fill="#a80"/><path style="line-height:normal;font-variant-ligatures:normal;font-variant-position:normal;font-variant-caps:normal;font-variant-numeric:normal;font-variant-alternates:normal;font-feature-settings:normal;text-indent:0;text-align:start;text-decoration-line:none;text-decoration-style:solid;text-decoration-color:#000;text-transform:none;text-orientation:mixed;shape-padding:0;isolation:auto;mix-blend-mode:normal" d="M7.27 4.133C5.774 5.701 4.278 7.265 2.783 8.83c.4.244.846.439 1.327.404.655.012 1.375-.26 1.984.083.896.681 1.176 1.941 2.181 2.505.148.148.258.057.36-.087l4.31-4.51a2.266 2.266 0 0 1-.97-.806c-.54-.69-.901-1.61-1.75-1.986-.864-.375-1.817.153-2.69-.155-.09-.043-.178-.095-.267-.144zm.198.68c.648.238 1.335.116 2.004.096.297-.028.397.057.146.24l-.678.712c-.756-.353-1.584-.025-2.375-.105zm2.887.442c.595.613.941 1.432 1.621 1.97.134.119-.18.26-.25.391l-.647.676c-.664-.597-.987-1.47-1.628-2.089zm-4.221.953c.648.238 1.336.117 2.005.097.296-.03.397.057.146.24l-.727.762c-.61-.306-1.292-.083-1.936-.132-.411.025-.36-.107-.116-.31zm2.889.442c.593.612.94 1.433 1.62 1.97.133.12-.18.261-.25.39l-.662.692c-.706-.553-1.024-1.436-1.663-2.05zM4.696 7.713c.782.293 1.608-.07 2.406.076l-.873.915c-.613-.309-1.295-.084-1.941-.133-.412.025-.363-.107-.117-.31zm2.945.385c.629.628.956 1.5 1.627 2.089l-.87.91c-.71-.554-1.026-1.444-1.67-2.057.31-.309.611-.626.913-.94z" font-weight="400" overflow="visible" color="#000" font-family="sans-serif" white-space="normal" fill="#a80"/></svg>